<mxfile host="app.diagrams.net" modified="2023-11-11T01:01:14.631Z" agent="Mozilla/5.0 (Macintosh; Intel Mac OS X 10_15_7) AppleWebKit/537.36 (KHTML, like Gecko) Chrome/119.0.0.0 Safari/537.36" etag="7a9vodrSSU_co43GNVIX" version="22.1.0" type="github">
  <diagram name="Page-1" id="9MIOL11NnL3qeURcutW-">
    <mxGraphModel dx="1237" dy="1936" grid="1" gridSize="10" guides="1" tooltips="1" connect="1" arrows="1" fold="1" page="1" pageScale="1" pageWidth="850" pageHeight="1100" math="0" shadow="0">
      <root>
        <mxCell id="0" />
        <mxCell id="1" parent="0" />
        <mxCell id="nIONL99TktXxZXt7bv5b-1" value="Corporate data center" style="points=[[0,0],[0.25,0],[0.5,0],[0.75,0],[1,0],[1,0.25],[1,0.5],[1,0.75],[1,1],[0.75,1],[0.5,1],[0.25,1],[0,1],[0,0.75],[0,0.5],[0,0.25]];outlineConnect=0;gradientColor=none;html=1;whiteSpace=wrap;fontSize=12;fontStyle=0;container=1;pointerEvents=0;collapsible=0;recursiveResize=0;shape=mxgraph.aws4.group;grIcon=mxgraph.aws4.group_corporate_data_center;strokeColor=#5A6C86;fillColor=none;verticalAlign=top;align=left;spacingLeft=30;fontColor=#5A6C86;dashed=0;" parent="1" vertex="1">
          <mxGeometry x="70" y="120" width="160" height="320" as="geometry" />
        </mxCell>
        <mxCell id="_xfP7KNKbU03eaIIPz9H-15" value="" style="group" parent="nIONL99TktXxZXt7bv5b-1" vertex="1" connectable="0">
          <mxGeometry x="49.8" y="200" width="60" height="90" as="geometry" />
        </mxCell>
        <mxCell id="nIONL99TktXxZXt7bv5b-10" value="" style="shape=cylinder3;whiteSpace=wrap;html=1;boundedLbl=1;backgroundOutline=1;size=15;" parent="_xfP7KNKbU03eaIIPz9H-15" vertex="1">
          <mxGeometry x="8.4" width="40" height="64.94845360824742" as="geometry" />
        </mxCell>
        <mxCell id="nIONL99TktXxZXt7bv5b-13" value="Database" style="text;html=1;strokeColor=none;fillColor=none;align=center;verticalAlign=middle;whiteSpace=wrap;rounded=0;" parent="_xfP7KNKbU03eaIIPz9H-15" vertex="1">
          <mxGeometry y="62.16494845360825" width="60" height="27.835051546391753" as="geometry" />
        </mxCell>
        <mxCell id="_xfP7KNKbU03eaIIPz9H-45" value="" style="group" parent="nIONL99TktXxZXt7bv5b-1" vertex="1" connectable="0">
          <mxGeometry x="50" y="90" width="59.8" height="94" as="geometry" />
        </mxCell>
        <mxCell id="_xfP7KNKbU03eaIIPz9H-3" value="" style="sketch=0;outlineConnect=0;fontColor=#232F3E;gradientColor=none;fillColor=#232F3D;strokeColor=none;dashed=0;verticalLabelPosition=bottom;verticalAlign=top;align=center;html=1;fontSize=12;fontStyle=0;aspect=fixed;pointerEvents=1;shape=mxgraph.aws4.traditional_server;" parent="_xfP7KNKbU03eaIIPz9H-45" vertex="1">
          <mxGeometry x="9.976633333333323" width="37.9572" height="65.8" as="geometry" />
        </mxCell>
        <mxCell id="_xfP7KNKbU03eaIIPz9H-14" value="Application" style="text;html=1;strokeColor=none;fillColor=none;align=center;verticalAlign=middle;whiteSpace=wrap;rounded=0;" parent="_xfP7KNKbU03eaIIPz9H-45" vertex="1">
          <mxGeometry y="65.8" width="59.8" height="28.2" as="geometry" />
        </mxCell>
        <mxCell id="_xfP7KNKbU03eaIIPz9H-48" value="Core Banking" style="points=[[0,0],[0.25,0],[0.5,0],[0.75,0],[1,0],[1,0.25],[1,0.5],[1,0.75],[1,1],[0.75,1],[0.5,1],[0.25,1],[0,1],[0,0.75],[0,0.5],[0,0.25]];outlineConnect=0;gradientColor=none;html=1;whiteSpace=wrap;fontSize=12;fontStyle=0;container=1;pointerEvents=0;collapsible=0;recursiveResize=0;shape=mxgraph.aws4.group;grIcon=mxgraph.aws4.group_on_premise;strokeColor=#7D8998;fillColor=none;verticalAlign=top;align=left;spacingLeft=30;fontColor=#5A6C86;dashed=0;" parent="nIONL99TktXxZXt7bv5b-1" vertex="1">
          <mxGeometry x="19.8" y="50" width="120" height="250" as="geometry" />
        </mxCell>
        <mxCell id="nIONL99TktXxZXt7bv5b-18" value="AWS Cloud" style="points=[[0,0],[0.25,0],[0.5,0],[0.75,0],[1,0],[1,0.25],[1,0.5],[1,0.75],[1,1],[0.75,1],[0.5,1],[0.25,1],[0,1],[0,0.75],[0,0.5],[0,0.25]];outlineConnect=0;gradientColor=none;html=1;whiteSpace=wrap;fontSize=12;fontStyle=0;container=1;pointerEvents=0;collapsible=0;recursiveResize=0;shape=mxgraph.aws4.group;grIcon=mxgraph.aws4.group_aws_cloud_alt;strokeColor=#232F3E;fillColor=none;verticalAlign=top;align=left;spacingLeft=30;fontColor=#232F3E;dashed=0;" parent="1" vertex="1">
          <mxGeometry x="400" y="120" width="700" height="640" as="geometry" />
        </mxCell>
        <mxCell id="_xfP7KNKbU03eaIIPz9H-24" value="VPC" style="points=[[0,0],[0.25,0],[0.5,0],[0.75,0],[1,0],[1,0.25],[1,0.5],[1,0.75],[1,1],[0.75,1],[0.5,1],[0.25,1],[0,1],[0,0.75],[0,0.5],[0,0.25]];outlineConnect=0;html=1;whiteSpace=wrap;fontSize=12;fontStyle=0;container=1;pointerEvents=0;collapsible=0;recursiveResize=0;shape=mxgraph.aws4.group;grIcon=mxgraph.aws4.group_vpc2;verticalAlign=top;align=left;spacingLeft=30;dashed=0;fillColor=none;" parent="nIONL99TktXxZXt7bv5b-18" vertex="1">
          <mxGeometry x="40" y="40" width="630" height="560" as="geometry" />
        </mxCell>
        <mxCell id="_xfP7KNKbU03eaIIPz9H-27" value="Private subnet" style="points=[[0,0],[0.25,0],[0.5,0],[0.75,0],[1,0],[1,0.25],[1,0.5],[1,0.75],[1,1],[0.75,1],[0.5,1],[0.25,1],[0,1],[0,0.75],[0,0.5],[0,0.25]];outlineConnect=0;html=1;whiteSpace=wrap;fontSize=12;fontStyle=0;container=1;pointerEvents=0;collapsible=0;recursiveResize=0;shape=mxgraph.aws4.group;grIcon=mxgraph.aws4.group_security_group;grStroke=0;strokeColor=#00A4A6;fillColor=#E6F6F7;verticalAlign=top;align=left;spacingLeft=30;dashed=0;" parent="_xfP7KNKbU03eaIIPz9H-24" vertex="1">
          <mxGeometry x="30" y="160" width="350" height="207" as="geometry" />
        </mxCell>
        <mxCell id="_xfP7KNKbU03eaIIPz9H-29" value="Auto Scaling group" style="points=[[0,0],[0.25,0],[0.5,0],[0.75,0],[1,0],[1,0.25],[1,0.5],[1,0.75],[1,1],[0.75,1],[0.5,1],[0.25,1],[0,1],[0,0.75],[0,0.5],[0,0.25]];outlineConnect=0;html=1;whiteSpace=wrap;fontSize=12;fontStyle=0;container=1;pointerEvents=0;collapsible=0;recursiveResize=0;shape=mxgraph.aws4.groupCenter;grIcon=mxgraph.aws4.group_auto_scaling_group;grStroke=1;strokeColor=#D86613;fillColor=#E6F6F7;verticalAlign=top;align=center;dashed=1;spacingTop=25;" parent="_xfP7KNKbU03eaIIPz9H-27" vertex="1">
          <mxGeometry x="57" y="40" width="230" height="150" as="geometry" />
        </mxCell>
        <mxCell id="_xfP7KNKbU03eaIIPz9H-32" value="" style="sketch=0;points=[[0,0,0],[0.25,0,0],[0.5,0,0],[0.75,0,0],[1,0,0],[0,1,0],[0.25,1,0],[0.5,1,0],[0.75,1,0],[1,1,0],[0,0.25,0],[0,0.5,0],[0,0.75,0],[1,0.25,0],[1,0.5,0],[1,0.75,0]];outlineConnect=0;fontColor=#232F3E;fillColor=#ED7100;strokeColor=#ffffff;dashed=0;verticalLabelPosition=bottom;verticalAlign=top;align=center;html=1;fontSize=12;fontStyle=0;aspect=fixed;shape=mxgraph.aws4.resourceIcon;resIcon=mxgraph.aws4.ec2;" parent="_xfP7KNKbU03eaIIPz9H-29" vertex="1">
          <mxGeometry x="30" y="62" width="50" height="50" as="geometry" />
        </mxCell>
        <mxCell id="_xfP7KNKbU03eaIIPz9H-33" value="" style="sketch=0;points=[[0,0,0],[0.25,0,0],[0.5,0,0],[0.75,0,0],[1,0,0],[0,1,0],[0.25,1,0],[0.5,1,0],[0.75,1,0],[1,1,0],[0,0.25,0],[0,0.5,0],[0,0.75,0],[1,0.25,0],[1,0.5,0],[1,0.75,0]];outlineConnect=0;fontColor=#232F3E;fillColor=#ED7100;strokeColor=#ffffff;dashed=0;verticalLabelPosition=bottom;verticalAlign=top;align=center;html=1;fontSize=12;fontStyle=0;aspect=fixed;shape=mxgraph.aws4.resourceIcon;resIcon=mxgraph.aws4.ec2;" parent="_xfP7KNKbU03eaIIPz9H-29" vertex="1">
          <mxGeometry x="140" y="61" width="50" height="50" as="geometry" />
        </mxCell>
        <mxCell id="_xfP7KNKbU03eaIIPz9H-43" value="EC2" style="text;html=1;strokeColor=none;fillColor=none;align=center;verticalAlign=middle;whiteSpace=wrap;rounded=0;" parent="_xfP7KNKbU03eaIIPz9H-29" vertex="1">
          <mxGeometry x="26" y="112" width="60" height="30" as="geometry" />
        </mxCell>
        <mxCell id="_xfP7KNKbU03eaIIPz9H-44" value="EC2" style="text;html=1;strokeColor=none;fillColor=none;align=center;verticalAlign=middle;whiteSpace=wrap;rounded=0;" parent="_xfP7KNKbU03eaIIPz9H-29" vertex="1">
          <mxGeometry x="135" y="111" width="60" height="30" as="geometry" />
        </mxCell>
        <mxCell id="_xfP7KNKbU03eaIIPz9H-26" value="Public subnet" style="points=[[0,0],[0.25,0],[0.5,0],[0.75,0],[1,0],[1,0.25],[1,0.5],[1,0.75],[1,1],[0.75,1],[0.5,1],[0.25,1],[0,1],[0,0.75],[0,0.5],[0,0.25]];outlineConnect=0;html=1;whiteSpace=wrap;fontSize=12;fontStyle=0;container=1;pointerEvents=0;collapsible=0;recursiveResize=0;shape=mxgraph.aws4.group;grIcon=mxgraph.aws4.group_security_group;grStroke=0;strokeColor=#82b366;fillColor=#F2F6E8;verticalAlign=top;align=left;spacingLeft=30;dashed=0;" parent="_xfP7KNKbU03eaIIPz9H-24" vertex="1">
          <mxGeometry x="30" y="35" width="350" height="105" as="geometry" />
        </mxCell>
        <mxCell id="_xfP7KNKbU03eaIIPz9H-38" value="" style="group;fillColor=#F2F6E8;fontColor=#333333;strokeColor=none;" parent="_xfP7KNKbU03eaIIPz9H-26" vertex="1" connectable="0">
          <mxGeometry x="132" y="28" width="130" height="73" as="geometry" />
        </mxCell>
        <mxCell id="_xfP7KNKbU03eaIIPz9H-28" value="" style="sketch=0;points=[[0,0,0],[0.25,0,0],[0.5,0,0],[0.75,0,0],[1,0,0],[0,1,0],[0.25,1,0],[0.5,1,0],[0.75,1,0],[1,1,0],[0,0.25,0],[0,0.5,0],[0,0.75,0],[1,0.25,0],[1,0.5,0],[1,0.75,0]];outlineConnect=0;fontColor=#232F3E;fillColor=#ED7100;strokeColor=#ffffff;dashed=0;verticalLabelPosition=bottom;verticalAlign=top;align=center;html=1;fontSize=12;fontStyle=0;aspect=fixed;shape=mxgraph.aws4.resourceIcon;resIcon=mxgraph.aws4.elastic_load_balancing;" parent="_xfP7KNKbU03eaIIPz9H-38" vertex="1">
          <mxGeometry x="15" y="-10" width="50" height="50" as="geometry" />
        </mxCell>
        <mxCell id="_xfP7KNKbU03eaIIPz9H-37" value="Elastic Load Balancer" style="text;html=1;strokeColor=none;fillColor=none;align=center;verticalAlign=middle;whiteSpace=wrap;rounded=0;" parent="_xfP7KNKbU03eaIIPz9H-38" vertex="1">
          <mxGeometry x="-22.5" y="43" width="125" height="30" as="geometry" />
        </mxCell>
        <mxCell id="_xfP7KNKbU03eaIIPz9H-39" style="edgeStyle=orthogonalEdgeStyle;rounded=0;orthogonalLoop=1;jettySize=auto;html=1;entryX=0.5;entryY=0;entryDx=0;entryDy=0;" parent="_xfP7KNKbU03eaIIPz9H-24" source="_xfP7KNKbU03eaIIPz9H-37" target="_xfP7KNKbU03eaIIPz9H-29" edge="1">
          <mxGeometry relative="1" as="geometry" />
        </mxCell>
        <mxCell id="_xfP7KNKbU03eaIIPz9H-49" value="Security" style="fillColor=none;strokeColor=#5A6C86;dashed=1;verticalAlign=top;fontStyle=0;fontColor=#5A6C86;whiteSpace=wrap;html=1;" parent="_xfP7KNKbU03eaIIPz9H-24" vertex="1">
          <mxGeometry x="410" y="35" width="200" height="235" as="geometry" />
        </mxCell>
        <mxCell id="_xfP7KNKbU03eaIIPz9H-50" value="" style="sketch=0;points=[[0,0,0],[0.25,0,0],[0.5,0,0],[0.75,0,0],[1,0,0],[0,1,0],[0.25,1,0],[0.5,1,0],[0.75,1,0],[1,1,0],[0,0.25,0],[0,0.5,0],[0,0.75,0],[1,0.25,0],[1,0.5,0],[1,0.75,0]];outlineConnect=0;fontColor=#232F3E;fillColor=#DD344C;strokeColor=#ffffff;dashed=0;verticalLabelPosition=bottom;verticalAlign=top;align=center;html=1;fontSize=12;fontStyle=0;aspect=fixed;shape=mxgraph.aws4.resourceIcon;resIcon=mxgraph.aws4.identity_and_access_management;" parent="_xfP7KNKbU03eaIIPz9H-24" vertex="1">
          <mxGeometry x="439" y="80" width="50" height="50" as="geometry" />
        </mxCell>
        <mxCell id="_xfP7KNKbU03eaIIPz9H-52" value="" style="sketch=0;points=[[0,0,0],[0.25,0,0],[0.5,0,0],[0.75,0,0],[1,0,0],[0,1,0],[0.25,1,0],[0.5,1,0],[0.75,1,0],[1,1,0],[0,0.25,0],[0,0.5,0],[0,0.75,0],[1,0.25,0],[1,0.5,0],[1,0.75,0]];outlineConnect=0;fontColor=#232F3E;fillColor=#DD344C;strokeColor=#ffffff;dashed=0;verticalLabelPosition=bottom;verticalAlign=top;align=center;html=1;fontSize=12;fontStyle=0;aspect=fixed;shape=mxgraph.aws4.resourceIcon;resIcon=mxgraph.aws4.secrets_manager;" parent="_xfP7KNKbU03eaIIPz9H-24" vertex="1">
          <mxGeometry x="529" y="80" width="50" height="50" as="geometry" />
        </mxCell>
        <mxCell id="_xfP7KNKbU03eaIIPz9H-53" value="IAM" style="text;html=1;strokeColor=none;fillColor=none;align=center;verticalAlign=middle;whiteSpace=wrap;rounded=0;" parent="_xfP7KNKbU03eaIIPz9H-24" vertex="1">
          <mxGeometry x="434" y="133" width="60" height="30" as="geometry" />
        </mxCell>
        <mxCell id="_xfP7KNKbU03eaIIPz9H-54" value="Secrets Manager" style="text;html=1;strokeColor=none;fillColor=none;align=center;verticalAlign=middle;whiteSpace=wrap;rounded=0;" parent="_xfP7KNKbU03eaIIPz9H-24" vertex="1">
          <mxGeometry x="524" y="133" width="60" height="30" as="geometry" />
        </mxCell>
        <mxCell id="_xfP7KNKbU03eaIIPz9H-56" value="Monitoring" style="fillColor=none;strokeColor=#5A6C86;dashed=1;verticalAlign=top;fontStyle=0;fontColor=#5A6C86;whiteSpace=wrap;html=1;" parent="_xfP7KNKbU03eaIIPz9H-24" vertex="1">
          <mxGeometry x="410" y="300" width="200" height="220" as="geometry" />
        </mxCell>
        <mxCell id="_xfP7KNKbU03eaIIPz9H-57" value="" style="group" parent="_xfP7KNKbU03eaIIPz9H-24" vertex="1" connectable="0">
          <mxGeometry x="434" y="183" width="60" height="80" as="geometry" />
        </mxCell>
        <mxCell id="_xfP7KNKbU03eaIIPz9H-51" value="" style="sketch=0;points=[[0,0,0],[0.25,0,0],[0.5,0,0],[0.75,0,0],[1,0,0],[0,1,0],[0.25,1,0],[0.5,1,0],[0.75,1,0],[1,1,0],[0,0.25,0],[0,0.5,0],[0,0.75,0],[1,0.25,0],[1,0.5,0],[1,0.75,0]];outlineConnect=0;fontColor=#232F3E;fillColor=#DD344C;strokeColor=#ffffff;dashed=0;verticalLabelPosition=bottom;verticalAlign=top;align=center;html=1;fontSize=12;fontStyle=0;aspect=fixed;shape=mxgraph.aws4.resourceIcon;resIcon=mxgraph.aws4.key_management_service;" parent="_xfP7KNKbU03eaIIPz9H-57" vertex="1">
          <mxGeometry x="5" width="50" height="50" as="geometry" />
        </mxCell>
        <mxCell id="_xfP7KNKbU03eaIIPz9H-55" value="KMS" style="text;html=1;strokeColor=none;fillColor=none;align=center;verticalAlign=middle;whiteSpace=wrap;rounded=0;" parent="_xfP7KNKbU03eaIIPz9H-57" vertex="1">
          <mxGeometry y="50" width="60" height="30" as="geometry" />
        </mxCell>
        <mxCell id="_xfP7KNKbU03eaIIPz9H-58" value="Private subnet" style="points=[[0,0],[0.25,0],[0.5,0],[0.75,0],[1,0],[1,0.25],[1,0.5],[1,0.75],[1,1],[0.75,1],[0.5,1],[0.25,1],[0,1],[0,0.75],[0,0.5],[0,0.25]];outlineConnect=0;html=1;whiteSpace=wrap;fontSize=12;fontStyle=0;container=1;pointerEvents=0;collapsible=0;recursiveResize=0;shape=mxgraph.aws4.group;grIcon=mxgraph.aws4.group_security_group;grStroke=0;strokeColor=#00A4A6;fillColor=#E6F6F7;verticalAlign=top;align=left;spacingLeft=30;dashed=0;" parent="_xfP7KNKbU03eaIIPz9H-24" vertex="1">
          <mxGeometry x="30" y="385" width="350" height="140" as="geometry" />
        </mxCell>
        <mxCell id="_xfP7KNKbU03eaIIPz9H-20" value="" style="group" parent="_xfP7KNKbU03eaIIPz9H-58" vertex="1" connectable="0">
          <mxGeometry x="57" y="49" width="159" height="80" as="geometry" />
        </mxCell>
        <mxCell id="nIONL99TktXxZXt7bv5b-24" value="" style="sketch=0;points=[[0,0,0],[0.25,0,0],[0.5,0,0],[0.75,0,0],[1,0,0],[0,1,0],[0.25,1,0],[0.5,1,0],[0.75,1,0],[1,1,0],[0,0.25,0],[0,0.5,0],[0,0.75,0],[1,0.25,0],[1,0.5,0],[1,0.75,0]];outlineConnect=0;fontColor=#232F3E;fillColor=#01A88D;strokeColor=#ffffff;dashed=0;verticalLabelPosition=bottom;verticalAlign=top;align=center;html=1;fontSize=12;fontStyle=0;aspect=fixed;shape=mxgraph.aws4.resourceIcon;resIcon=mxgraph.aws4.database_migration_service;" parent="_xfP7KNKbU03eaIIPz9H-20" vertex="1">
          <mxGeometry x="5" width="50" height="50" as="geometry" />
        </mxCell>
        <mxCell id="dGLy3h3OTeFdoIgt9iLi-1" value="" style="sketch=0;points=[[0,0,0],[0.25,0,0],[0.5,0,0],[0.75,0,0],[1,0,0],[0,1,0],[0.25,1,0],[0.5,1,0],[0.75,1,0],[1,1,0],[0,0.25,0],[0,0.5,0],[0,0.75,0],[1,0.25,0],[1,0.5,0],[1,0.75,0]];outlineConnect=0;fontColor=#232F3E;fillColor=#C925D1;strokeColor=#ffffff;dashed=0;verticalLabelPosition=bottom;verticalAlign=top;align=center;html=1;fontSize=12;fontStyle=0;aspect=fixed;shape=mxgraph.aws4.resourceIcon;resIcon=mxgraph.aws4.rds;" parent="_xfP7KNKbU03eaIIPz9H-20" vertex="1">
          <mxGeometry x="105" y="1" width="48" height="48" as="geometry" />
        </mxCell>
        <mxCell id="_xfP7KNKbU03eaIIPz9H-4" style="edgeStyle=orthogonalEdgeStyle;rounded=0;orthogonalLoop=1;jettySize=auto;html=1;entryX=0;entryY=0.5;entryDx=0;entryDy=0;entryPerimeter=0;" parent="_xfP7KNKbU03eaIIPz9H-20" source="nIONL99TktXxZXt7bv5b-24" target="dGLy3h3OTeFdoIgt9iLi-1" edge="1">
          <mxGeometry relative="1" as="geometry" />
        </mxCell>
        <mxCell id="_xfP7KNKbU03eaIIPz9H-17" value="RDS" style="text;html=1;strokeColor=none;fillColor=none;align=center;verticalAlign=middle;whiteSpace=wrap;rounded=0;" parent="_xfP7KNKbU03eaIIPz9H-20" vertex="1">
          <mxGeometry x="99" y="50" width="60" height="30" as="geometry" />
        </mxCell>
        <mxCell id="_xfP7KNKbU03eaIIPz9H-18" value="DMS" style="text;html=1;strokeColor=none;fillColor=none;align=center;verticalAlign=middle;whiteSpace=wrap;rounded=0;" parent="_xfP7KNKbU03eaIIPz9H-20" vertex="1">
          <mxGeometry y="50" width="60" height="30" as="geometry" />
        </mxCell>
        <mxCell id="_xfP7KNKbU03eaIIPz9H-60" value="" style="sketch=0;points=[[0,0,0],[0.25,0,0],[0.5,0,0],[0.75,0,0],[1,0,0],[0,1,0],[0.25,1,0],[0.5,1,0],[0.75,1,0],[1,1,0],[0,0.25,0],[0,0.5,0],[0,0.75,0],[1,0.25,0],[1,0.5,0],[1,0.75,0]];points=[[0,0,0],[0.25,0,0],[0.5,0,0],[0.75,0,0],[1,0,0],[0,1,0],[0.25,1,0],[0.5,1,0],[0.75,1,0],[1,1,0],[0,0.25,0],[0,0.5,0],[0,0.75,0],[1,0.25,0],[1,0.5,0],[1,0.75,0]];outlineConnect=0;fontColor=#232F3E;fillColor=#E7157B;strokeColor=#ffffff;dashed=0;verticalLabelPosition=bottom;verticalAlign=top;align=center;html=1;fontSize=12;fontStyle=0;aspect=fixed;shape=mxgraph.aws4.resourceIcon;resIcon=mxgraph.aws4.cloudwatch_2;" parent="_xfP7KNKbU03eaIIPz9H-24" vertex="1">
          <mxGeometry x="444" y="340" width="50" height="50" as="geometry" />
        </mxCell>
        <mxCell id="_xfP7KNKbU03eaIIPz9H-61" value="" style="sketch=0;points=[[0,0,0],[0.25,0,0],[0.5,0,0],[0.75,0,0],[1,0,0],[0,1,0],[0.25,1,0],[0.5,1,0],[0.75,1,0],[1,1,0],[0,0.25,0],[0,0.5,0],[0,0.75,0],[1,0.25,0],[1,0.5,0],[1,0.75,0]];points=[[0,0,0],[0.25,0,0],[0.5,0,0],[0.75,0,0],[1,0,0],[0,1,0],[0.25,1,0],[0.5,1,0],[0.75,1,0],[1,1,0],[0,0.25,0],[0,0.5,0],[0,0.75,0],[1,0.25,0],[1,0.5,0],[1,0.75,0]];outlineConnect=0;fontColor=#232F3E;fillColor=#E7157B;strokeColor=#ffffff;dashed=0;verticalLabelPosition=bottom;verticalAlign=top;align=center;html=1;fontSize=12;fontStyle=0;aspect=fixed;shape=mxgraph.aws4.resourceIcon;resIcon=mxgraph.aws4.cloudtrail;" parent="_xfP7KNKbU03eaIIPz9H-24" vertex="1">
          <mxGeometry x="534" y="340" width="50" height="50" as="geometry" />
        </mxCell>
        <mxCell id="_xfP7KNKbU03eaIIPz9H-62" value="" style="sketch=0;points=[[0,0,0],[0.25,0,0],[0.5,0,0],[0.75,0,0],[1,0,0],[0,1,0],[0.25,1,0],[0.5,1,0],[0.75,1,0],[1,1,0],[0,0.25,0],[0,0.5,0],[0,0.75,0],[1,0.25,0],[1,0.5,0],[1,0.75,0]];points=[[0,0,0],[0.25,0,0],[0.5,0,0],[0.75,0,0],[1,0,0],[0,1,0],[0.25,1,0],[0.5,1,0],[0.75,1,0],[1,1,0],[0,0.25,0],[0,0.5,0],[0,0.75,0],[1,0.25,0],[1,0.5,0],[1,0.75,0]];outlineConnect=0;fontColor=#232F3E;fillColor=#E7157B;strokeColor=#ffffff;dashed=0;verticalLabelPosition=bottom;verticalAlign=top;align=center;html=1;fontSize=12;fontStyle=0;aspect=fixed;shape=mxgraph.aws4.resourceIcon;resIcon=mxgraph.aws4.config;" parent="_xfP7KNKbU03eaIIPz9H-24" vertex="1">
          <mxGeometry x="444" y="433" width="50" height="50" as="geometry" />
        </mxCell>
        <mxCell id="_xfP7KNKbU03eaIIPz9H-63" value="Cloud Watch" style="text;html=1;strokeColor=none;fillColor=none;align=center;verticalAlign=middle;whiteSpace=wrap;rounded=0;" parent="_xfP7KNKbU03eaIIPz9H-24" vertex="1">
          <mxGeometry x="431" y="390" width="76" height="30" as="geometry" />
        </mxCell>
        <mxCell id="_xfP7KNKbU03eaIIPz9H-64" value="Config" style="text;html=1;strokeColor=none;fillColor=none;align=center;verticalAlign=middle;whiteSpace=wrap;rounded=0;" parent="_xfP7KNKbU03eaIIPz9H-24" vertex="1">
          <mxGeometry x="439" y="483" width="60" height="30" as="geometry" />
        </mxCell>
        <mxCell id="_xfP7KNKbU03eaIIPz9H-65" value="CloudTrail" style="text;html=1;strokeColor=none;fillColor=none;align=center;verticalAlign=middle;whiteSpace=wrap;rounded=0;" parent="_xfP7KNKbU03eaIIPz9H-24" vertex="1">
          <mxGeometry x="529" y="390" width="60" height="30" as="geometry" />
        </mxCell>
        <mxCell id="gIqXEBIubMdzkq4mhFR0-6" value="4" style="ellipse;whiteSpace=wrap;html=1;aspect=fixed;strokeWidth=2;fontFamily=Tahoma;spacingBottom=4;spacingRight=2;fillColor=#6a00ff;strokeColor=#3700CC;fontSize=20;fontColor=#ffffff;" vertex="1" parent="_xfP7KNKbU03eaIIPz9H-24">
          <mxGeometry x="210" y="5" width="30" height="30" as="geometry" />
        </mxCell>
        <mxCell id="gIqXEBIubMdzkq4mhFR0-7" value="5" style="ellipse;whiteSpace=wrap;html=1;aspect=fixed;strokeWidth=2;fontFamily=Tahoma;spacingBottom=4;spacingRight=2;fillColor=#6a00ff;strokeColor=#3700CC;fontSize=20;fontColor=#ffffff;" vertex="1" parent="_xfP7KNKbU03eaIIPz9H-24">
          <mxGeometry x="554" y="35" width="30" height="30" as="geometry" />
        </mxCell>
        <mxCell id="gIqXEBIubMdzkq4mhFR0-8" value="6" style="ellipse;whiteSpace=wrap;html=1;aspect=fixed;strokeWidth=2;fontFamily=Tahoma;spacingBottom=4;spacingRight=2;fillColor=#6a00ff;strokeColor=#3700CC;fontSize=20;fontColor=#ffffff;" vertex="1" parent="_xfP7KNKbU03eaIIPz9H-24">
          <mxGeometry x="559" y="300" width="30" height="30" as="geometry" />
        </mxCell>
        <mxCell id="_xfP7KNKbU03eaIIPz9H-21" style="edgeStyle=orthogonalEdgeStyle;rounded=0;orthogonalLoop=1;jettySize=auto;html=1;entryX=0.5;entryY=0;entryDx=0;entryDy=0;" parent="1" source="nIONL99TktXxZXt7bv5b-21" target="nIONL99TktXxZXt7bv5b-1" edge="1">
          <mxGeometry relative="1" as="geometry" />
        </mxCell>
        <mxCell id="nIONL99TktXxZXt7bv5b-21" value="Amazon Route 53" style="sketch=0;outlineConnect=0;fontColor=#232F3E;gradientColor=none;strokeColor=#ffffff;fillColor=#232F3E;dashed=0;verticalLabelPosition=middle;verticalAlign=bottom;align=center;html=1;whiteSpace=wrap;fontSize=10;fontStyle=1;spacing=3;shape=mxgraph.aws4.productIcon;prIcon=mxgraph.aws4.route_53;" parent="1" vertex="1">
          <mxGeometry x="365" y="-30" width="55" height="90" as="geometry" />
        </mxCell>
        <mxCell id="_xfP7KNKbU03eaIIPz9H-40" style="edgeStyle=orthogonalEdgeStyle;rounded=0;orthogonalLoop=1;jettySize=auto;html=1;entryX=0.5;entryY=0;entryDx=0;entryDy=0;entryPerimeter=0;dashed=1;dashPattern=8 8;" parent="1" source="nIONL99TktXxZXt7bv5b-21" target="_xfP7KNKbU03eaIIPz9H-28" edge="1">
          <mxGeometry relative="1" as="geometry" />
        </mxCell>
        <mxCell id="_xfP7KNKbU03eaIIPz9H-46" value="" style="group" parent="1" vertex="1" connectable="0">
          <mxGeometry x="234" y="250" width="162" height="90" as="geometry" />
        </mxCell>
        <mxCell id="_xfP7KNKbU03eaIIPz9H-5" style="edgeStyle=orthogonalEdgeStyle;rounded=0;orthogonalLoop=1;jettySize=auto;html=1;startArrow=classic;startFill=1;" parent="_xfP7KNKbU03eaIIPz9H-46" edge="1">
          <mxGeometry relative="1" as="geometry">
            <mxPoint x="50" y="25" as="targetPoint" />
            <mxPoint y="25" as="sourcePoint" />
          </mxGeometry>
        </mxCell>
        <mxCell id="nIONL99TktXxZXt7bv5b-22" value="" style="sketch=0;points=[[0,0,0],[0.25,0,0],[0.5,0,0],[0.75,0,0],[1,0,0],[0,1,0],[0.25,1,0],[0.5,1,0],[0.75,1,0],[1,1,0],[0,0.25,0],[0,0.5,0],[0,0.75,0],[1,0.25,0],[1,0.5,0],[1,0.75,0]];outlineConnect=0;fontColor=#232F3E;fillColor=#8C4FFF;strokeColor=#ffffff;dashed=0;verticalLabelPosition=bottom;verticalAlign=top;align=center;html=1;fontSize=12;fontStyle=0;aspect=fixed;shape=mxgraph.aws4.resourceIcon;resIcon=mxgraph.aws4.direct_connect;" parent="_xfP7KNKbU03eaIIPz9H-46" vertex="1">
          <mxGeometry x="56" width="50" height="50" as="geometry" />
        </mxCell>
        <mxCell id="_xfP7KNKbU03eaIIPz9H-8" style="edgeStyle=orthogonalEdgeStyle;rounded=0;orthogonalLoop=1;jettySize=auto;html=1;startArrow=classic;startFill=1;" parent="_xfP7KNKbU03eaIIPz9H-46" edge="1">
          <mxGeometry relative="1" as="geometry">
            <mxPoint x="162" y="25" as="targetPoint" />
            <mxPoint x="112" y="25" as="sourcePoint" />
          </mxGeometry>
        </mxCell>
        <mxCell id="_xfP7KNKbU03eaIIPz9H-9" value="Direct Connect" style="text;html=1;strokeColor=none;fillColor=none;align=center;verticalAlign=middle;whiteSpace=wrap;rounded=0;" parent="_xfP7KNKbU03eaIIPz9H-46" vertex="1">
          <mxGeometry x="51" y="60" width="60" height="30" as="geometry" />
        </mxCell>
        <mxCell id="_xfP7KNKbU03eaIIPz9H-66" style="edgeStyle=orthogonalEdgeStyle;rounded=0;orthogonalLoop=1;jettySize=auto;html=1;entryX=0;entryY=0.5;entryDx=0;entryDy=0;entryPerimeter=0;" parent="1" source="nIONL99TktXxZXt7bv5b-13" target="nIONL99TktXxZXt7bv5b-24" edge="1">
          <mxGeometry relative="1" as="geometry">
            <Array as="points">
              <mxPoint x="150" y="619" />
            </Array>
          </mxGeometry>
        </mxCell>
        <mxCell id="_xfP7KNKbU03eaIIPz9H-68" value="Over AWS Direct Connect" style="text;html=1;strokeColor=none;fillColor=none;align=center;verticalAlign=middle;whiteSpace=wrap;rounded=0;" parent="1" vertex="1">
          <mxGeometry x="220" y="590" width="110" height="30" as="geometry" />
        </mxCell>
        <mxCell id="gIqXEBIubMdzkq4mhFR0-1" value="1" style="ellipse;whiteSpace=wrap;html=1;aspect=fixed;strokeWidth=2;fontFamily=Tahoma;spacingBottom=4;spacingRight=2;fillColor=#6a00ff;strokeColor=#3700CC;fontSize=20;fontColor=#ffffff;" vertex="1" parent="1">
          <mxGeometry x="382.5" y="70" width="30" height="30" as="geometry" />
        </mxCell>
        <mxCell id="gIqXEBIubMdzkq4mhFR0-3" value="2" style="ellipse;whiteSpace=wrap;html=1;aspect=fixed;strokeWidth=2;fontFamily=Tahoma;spacingBottom=4;spacingRight=2;fillColor=#6a00ff;strokeColor=#3700CC;fontSize=20;fontColor=#ffffff;" vertex="1" parent="1">
          <mxGeometry x="300" y="350" width="30" height="30" as="geometry" />
        </mxCell>
        <mxCell id="gIqXEBIubMdzkq4mhFR0-5" value="3" style="ellipse;whiteSpace=wrap;html=1;aspect=fixed;strokeWidth=2;fontFamily=Tahoma;spacingBottom=4;spacingRight=2;fillColor=#6a00ff;strokeColor=#3700CC;fontSize=20;fontColor=#ffffff;" vertex="1" parent="1">
          <mxGeometry x="280" y="630" width="30" height="30" as="geometry" />
        </mxCell>
      </root>
    </mxGraphModel>
  </diagram>
</mxfile>
